# xmcd CD database file
# Copyright (C) 1996 Ti Kan
#
# Track frame offsets:
#  150
#  12617
#  25010
#  35567
#  49577
#  59470
#  71702
#  83637
#  93660
#  102715
#
# Disc length: 1509 seconds
#
# Revision: 1
# Processed by: cddbd v1.4b41PL1 Copyright (c) Steve Scherf et al.
# Submitted via: CDWizzard Release:4.10
#
DISCID=8605e30a
DTITLE=Kitty Wells - Kitty Wells: Queen of Country Music
DYEAR=1900
DGENRE=
TTITLE0=Left to Right
TTITLE1=Password
TTITLE2=A Wedding Ring Ago
TTITLE3=I Don't Claim to Be an Angel
TTITLE4=Whose Shoulder Will You Cry On
TTITLE5=Lonely Side of Town
TTITLE6=It Wasn't God Who Made Honky Tonk Angels
TTITLE7=Release Me
TTITLE8=I'll Repossess My Heart
TTITLE9=Lonely Street
EXTD=
EXTT0=Kitty Wells
EXTT1=Kitty Wells
EXTT2=Kitty Wells
EXTT3=Kitty Wells
EXTT4=Kitty Wells
EXTT5=Kitty Wells
EXTT6=Kitty Wells
EXTT7=Kitty Wells
EXTT8=Kitty Wells
EXTT9=Kitty Wells
PLAYORDER=
